Coordinates
version=1
nRows=12
nColumns=46
inDegrees=yes

Units are S.I. units (second, meters, Newtons, ...)
Angles are in degrees.

endheader
time	pelvis_tilt	pelvis_list	pelvis_rotation	pelvis_tx	pelvis_ty	pelvis_tz	bb_angle	bb_tx	bb_ty	bb_tz	hip_flexion_r	hip_adduction_r	hip_rotation_r	knee_angle_r	knee_angle_r_beta	ankle_angle_r	subtalar_angle_r	mtp_angle_r	crank_angle_r	hip_flexion_l	hip_adduction_l	hip_rotation_l	knee_angle_l	knee_angle_l_beta	ankle_angle_l	subtalar_angle_l	mtp_angle_l	crank_angle_l	lumbar_extension	lumbar_bending	lumbar_rotation	arm_flex_r	arm_add_r	arm_rot_r	elbow_flex_r	pro_sup_r	wrist_flex_r	wrist_dev_r	arm_flex_l	arm_add_l	arm_rot_l	elbow_flex_l	pro_sup_l	wrist_flex_l	wrist_dev_l
      0.00500000	    -16.38767095	     -2.73328655	     -4.50681883	      0.17369083	      1.04261037	     -0.31196194	      0.00000000	      0.50000000	      0.00000000	      0.25000000	     84.82250498	     -0.92059502	      0.33595351	     83.20778000	      1.45224972	      6.43486150	     -7.16767795	      0.00000000	      0.00000000	     57.50885493	    -11.52477445	      0.71539360	     80.38972791	      1.40306544	     -8.54892573	    -11.79776823	      0.00000000	      0.00000000	    -55.49794102	      0.77435939	      5.65734595	     89.74623083	     -0.32301085	     34.84765803	     25.31713921	     20.77517779	      0.00000000	      0.00000000	     89.47568766	     -0.65601069	     35.17239342	     24.90459977	     23.39816934	      0.00000000	      0.00000000
      0.01000000	    -16.31142801	     -2.76313712	     -4.51356496	      0.17359334	      1.04285482	     -0.31187525	      0.00000000	      0.50000000	      0.00000000	      0.25000000	     84.69744819	     -0.86168574	      0.34035471	     83.24753413	      1.45294356	      6.71684852	     -7.19818110	      0.00000000	      0.00000000	     57.45092203	    -11.55804611	      0.71338899	     80.23800301	      1.40041734	     -9.13077024	    -12.13659944	      0.00000000	      0.00000000	    -55.66728462	      0.77217917	      5.72403695	     89.74536691	     -0.23143837	     33.54862658	     25.62263034	     21.84108313	      0.00000000	      0.00000000	     89.45484581	     -0.65253893	     34.06310802	     25.56253835	     24.46104964	      0.00000000	      0.00000000
      0.01500000	    -16.47281372	     -2.64725685	     -4.48083806	      0.17356470	      1.04258964	     -0.31183646	      0.00000000	      0.50000000	      0.00000000	      0.25000000	     84.89323109	     -0.90489803	      0.46297155	     83.34632604	      1.45466781	      7.08127187	     -7.05989984	      0.00000000	      0.00000000	     57.62894368	    -11.45941544	      0.70072436	     80.14750719	      1.39883789	     -9.18019941	    -11.72168522	      0.00000000	      0.00000000	    -55.42639891	      0.73208835	      5.57831351	     89.74362994	     -0.02297364	     33.08739906	     25.09875405	     22.46157835	      0.00000000	      0.00000000	     89.47795388	     -0.52254223	     34.11991302	     24.67000173	     24.80122878	      0.00000000	      0.00000000
      0.02000000	    -16.45839322	     -2.65878469	     -4.47998574	      0.17346377	      1.04261529	     -0.31202307	      0.00000000	      0.50000000	      0.00000000	      0.25000000	     84.84235058	     -0.89102318	      0.52016242	     83.39711793	      1.45555429	      7.40237780	     -6.87747072	      0.00000000	      0.00000000	     57.60978794	    -11.44316070	      0.70445561	     80.03645227	      1.39689961	     -9.49064833	    -11.90802118	      0.00000000	      0.00000000	    -55.50037702	      0.77943135	      5.66863072	     89.73965585	     -0.22838983	     32.77257082	     25.41855424	     23.03389242	      0.00000000	      0.00000000	     89.47949679	     -0.52529611	     33.71534082	     24.81705357	     25.48311580	      0.00000000	      0.00000000
      0.02500000	    -16.59638886	     -2.62736518	     -4.48299197	      0.17329403	      1.04274483	     -0.31168803	      0.00000000	      0.50000000	      0.00000000	      0.25000000	     84.99266531	     -0.85983378	      0.55965881	     83.44884628	      1.45645712	      7.45637278	     -7.05900381	      0.00000000	      0.00000000	     57.74245782	    -11.42449171	      0.74343657	     79.95157965	      1.39541831	     -9.54274586	    -11.72091983	      0.00000000	      0.00000000	    -55.28148760	      0.76456809	      5.63950995	     89.74365268	     -0.06818876	     33.06146780	     24.87642811	     23.21305669	      0.00000000	      0.00000000	     89.48610902	     -0.45681824	     33.67542889	     24.35179791	     26.01759529	      0.00000000	      0.00000000
      0.03000000	    -16.58349905	     -2.54988074	     -4.50024889	      0.17326381	      1.04281682	     -0.31164882	      0.00000000	      0.50000000	      0.00000000	      0.25000000	     85.03722418	     -0.85630696	      0.64199864	     83.50920558	      1.45751059	      7.40983090	     -7.12206430	      0.00000000	      0.00000000	     57.68632056	    -11.36879879	      0.67265454	     79.85830114	      1.39379029	     -9.70172173	    -11.84998506	      0.00000000	      0.00000000	    -55.31488973	      0.66819451	      5.53676725	     89.74410850	      0.04756147	     32.43478684	     24.76054266	     24.01574812	      0.00000000	      0.00000000	     89.48352205	     -0.32975456	     33.05755307	     24.18136484	     26.87123535	      0.00000000	      0.00000000
      0.03500000	    -16.55773704	     -2.55823905	     -4.51789771	      0.17329434	      1.04277303	     -0.31158740	      0.00000000	      0.50000000	      0.00000000	      0.25000000	     85.08279469	     -0.84014145	      0.64803608	     83.57041791	      1.45857895	      7.29635158	     -7.07855775	      0.00000000	      0.00000000	     57.63838530	    -11.39109257	      0.68391484	     79.86512424	      1.39390938	     -9.52845359	    -11.69574335	      0.00000000	      0.00000000	    -55.30034995	      0.65204772	      5.55717083	     89.74640119	     -0.47015343	     35.28411849	     24.92583087	     22.72108750	      0.00000000	      0.00000000	     89.49260682	     -0.71593702	     35.18379016	     24.11778272	     26.94291514	      0.00000000	      0.00000000
      0.04000000	    -16.55148239	     -2.55870682	     -4.52143804	      0.17325149	      1.04277337	     -0.31155981	      0.00000000	      0.50000000	      0.00000000	      0.25000000	     85.13069777	     -0.83024316	      0.66073051	     83.59693326	      1.45904173	      7.14789669	     -7.05928713	      0.00000000	      0.00000000	     57.60791903	    -11.37907104	      0.71931308	     79.86653376	      1.39393398	     -9.37487732	    -11.63688048	      0.00000000	      0.00000000	    -55.32182398	      0.65819871	      5.54318280	     89.74489989	     -0.07236630	     33.15817584	     24.60827232	     24.59444961	      0.00000000	      0.00000000	     89.48569158	     -0.49543072	     33.47143571	     23.83032591	     28.58827760	      0.00000000	      0.00000000
      0.04500000	    -16.54129799	     -2.49107368	     -4.56410955	      0.17326541	      1.04281767	     -0.31155245	      0.00000000	      0.50000000	      0.00000000	      0.25000000	     85.19214234	     -0.80191686	      0.75165715	     83.62008057	      1.45944573	      6.88543362	     -7.14217408	      0.00000000	      0.00000000	     57.52285380	    -11.33245236	      0.65571011	     79.83827527	      1.39344077	     -9.23344594	    -11.70800144	      0.00000000	      0.00000000	    -55.34161062	      0.56132049	      5.54159865	     89.74318428	     -0.07695548	     32.68572932	     24.63739973	     24.91995435	      0.00000000	      0.00000000	     89.48478102	     -0.42074823	     33.12272116	     23.86251537	     29.02928320	      0.00000000	      0.00000000
      0.05000000	    -16.51933687	     -2.55047159	     -4.64805761	      0.17323167	      1.04278020	     -0.31143573	      0.00000000	      0.50000000	      0.00000000	      0.25000000	     85.20643203	     -0.66649529	      0.73532020	     83.63243257	      1.45966131	      6.67375561	     -7.19698333	      0.00000000	      0.00000000	     57.47813926	    -11.44781140	      0.67219149	     79.91876585	      1.39484560	     -8.94094779	    -11.58941602	      0.00000000	      0.00000000	    -55.33113669	      0.53100935	      5.64723244	     89.74654061	     -0.55127117	     35.46206797	     24.86161366	     22.92960915	      0.00000000	      0.00000000	     89.49322136	     -0.76804642	     35.20996367	     23.92782895	     28.44474692	      0.00000000	      0.00000000
      0.05500000	    -16.49604221	     -2.54016565	     -4.70779021	      0.17326107	      1.04278915	     -0.31142277	      0.00000000	      0.50000000	      0.00000000	      0.25000000	     85.25245799	     -0.60997782	      0.77600294	     83.63326205	      1.45967579	      6.34811364	     -7.19179687	      0.00000000	      0.00000000	     57.39520348	    -11.48211699	      0.63896240	     79.97550086	      1.39583581	     -8.59497798	    -11.48773157	      0.00000000	      0.00000000	    -55.35628545	      0.48366535	      5.66491290	     89.74666681	     -0.47307246	     35.32215469	     25.00191507	     22.05770222	      0.00000000	      0.00000000	     89.49053027	     -0.78472822	     35.20972358	     24.16037203	     27.44388985	      0.00000000	      0.00000000
      0.06000000	    -16.42244940	     -2.54690542	     -4.87000314	      0.17338419	      1.04293279	     -0.31133517	      0.00000000	      0.50000000	      0.00000000	      0.25000000	     85.24198441	     -0.45170292	      0.77763027	     83.61860215	      1.45941992	      5.92855819	     -7.34458644	      0.00000000	      0.00000000	     57.20682314	    -11.60140210	      0.54136926	     80.00862423	      1.39641392	     -8.24839685	    -11.58080702	      0.00000000	      0.00000000	    -55.47508992	      0.38122144	      5.77242223	     89.74416434	     -0.39982420	     34.37049583	     25.14427530	     22.39223061	      0.00000000	      0.00000000	     89.47461701	     -0.73144284	     34.52147039	     24.41772234	     27.52702264	      0.00000000	      0.00000000
